<?xml version="1.0" standalone="no"?>
<!DOCTYPE svg PUBLIC "-//W3C//DTD SVG 20010904//EN"
 "http://www.w3.org/TR/2001/REC-SVG-20010904/DTD/svg10.dtd">
<svg version="1.0" xmlns="http://www.w3.org/2000/svg"
 width="512.000000pt" height="512.000000pt" viewBox="0 0 512.000000 512.000000"
 preserveAspectRatio="xMidYMid meet">
<metadata>
Created by potrace 1.14, written by Peter Selinger 2001-2017
</metadata>
<g transform="translate(0.000000,512.000000) scale(0.100000,-0.100000)"
fill="#000000" stroke="none">
<path d="M3497 4964 c-2 -3 -69 -6 -148 -9 -79 -2 -159 -6 -177 -10 -17 -3
-51 -7 -75 -10 -69 -7 -162 -22 -242 -41 -5 -1 -23 -5 -40 -8 -148 -28 -523
-181 -564 -230 -7 -9 -19 -16 -27 -16 -7 0 -19 -6 -26 -13 -7 -7 -20 -18 -29
-23 -46 -25 -193 -163 -253 -234 -130 -157 -254 -422 -233 -500 27 -103 92
-227 145 -274 27 -24 27 -31 1 -59 -11 -12 -30 -35 -42 -50 -12 -15 -30 -37
-39 -49 -10 -11 -20 -29 -23 -39 -4 -11 -10 -19 -15 -19 -5 0 -12 -9 -15 -20
-3 -11 -12 -26 -18 -32 -7 -7 -23 -33 -37 -58 -25 -46 -50 -73 -154 -164 -33
-28 -68 -59 -78 -68 -10 -10 -22 -18 -27 -18 -5 0 -11 -4 -13 -8 -1 -4 -32
-30 -68 -57 -76 -58 -100 -81 -100 -95 0 -5 -4 -10 -9 -10 -17 0 -49 -92 -45
-132 7 -64 67 -138 147 -179 21 -11 40 -26 43 -33 3 -8 -2 -40 -10 -72 -8 -33
-17 -79 -20 -104 -3 -25 -7 -54 -10 -65 -2 -11 -6 -41 -10 -66 -4 -25 -9 -57
-11 -70 -2 -13 -6 -42 -10 -64 -7 -52 -14 -93 -20 -130 -9 -48 -12 -67 -20
-120 -4 -27 -11 -69 -16 -93 -5 -23 -12 -59 -15 -80 -3 -20 -7 -45 -10 -54 -5
-18 -11 -45 -20 -93 -3 -16 -12 -61 -21 -99 -17 -75 -16 -74 -28 -131 -4 -22
-11 -44 -15 -50 -4 -5 -8 -17 -8 -25 0 -8 -8 -40 -17 -70 -9 -30 -18 -62 -20
-71 -2 -9 -10 -38 -19 -63 -23 -66 -20 -112 9 -162 24 -40 73 -80 112 -89 10
-3 45 -12 78 -20 33 -9 71 -18 85 -20 14 -2 36 -7 50 -10 40 -8 105 -19 190
-30 32 -5 235 -18 278 -18 17 0 32 -1 32 -2 0 -3 -29 -76 -40 -100 -5 -11 -16
-40 -24 -65 -8 -25 -28 -79 -44 -121 -26 -68 -28 -80 -17 -106 17 -40 83 -72
157 -75 32 -2 58 -5 58 -8 0 -8 253 4 345 16 17 2 48 6 70 8 22 3 51 8 65 11
14 3 41 8 60 11 93 15 421 112 510 151 8 3 17 7 20 8 63 21 237 101 365 166
190 97 220 113 223 122 2 4 10 7 18 7 8 0 14 3 14 8 0 4 18 15 39 26 43 20
133 102 167 152 38 53 67 127 72 179 5 58 -20 123 -74 190 -30 37 -60 108 -71
165 -2 14 -9 43 -14 65 -13 52 -17 74 -34 170 -8 44 -17 96 -21 115 -3 19 -8
89 -11 156 l-5 120 50 12 c182 42 314 185 343 373 6 43 8 116 5 178 -4 58 -8
175 -9 258 -1 84 -6 153 -10 153 -5 0 -5 4 -2 10 5 9 10 449 5 475 -2 6 -2 13
-1 17 1 8 2 133 1 158 -1 8 -1 80 -1 160 1 80 1 154 1 165 -1 11 0 79 0 150 0
151 -6 309 -14 345 -5 22 -12 57 -22 111 -5 31 -57 154 -78 185 -32 47 -84
104 -96 104 -5 0 -10 4 -10 9 0 9 -86 49 -124 57 -11 3 -48 7 -81 9 -33 3 -81
11 -107 19 -25 8 -48 12 -51 10z"/>
</g>
</svg>
